<?xml version="1.0" standalone="no"?>
<!DOCTYPE svg PUBLIC "-//W3C//DTD SVG 20010904//EN"
 "http://www.w3.org/TR/2001/REC-SVG-20010904/DTD/svg10.dtd">
<svg version="1.0" xmlns="http://www.w3.org/2000/svg"
 width="512.000000pt" height="512.000000pt" viewBox="0 0 512.000000 512.000000"
 preserveAspectRatio="xMidYMid meet">
<metadata>
Created by potrace 1.14, written by Peter Selinger 2001-2017
</metadata>
<g transform="translate(0.000000,512.000000) scale(0.100000,-0.100000)"
fill="#000000" stroke="none">
<path d="M137 4541 c-37 -8 -91 -53 -113 -93 -17 -31 -18 -133 -19 -1822 -1
-984 1 -1802 3 -1817 3 -17 9 -27 16 -23 6 3 3 -1 -6 -9 -16 -13 -16 -15 0
-32 9 -10 11 -15 4 -11 -13 8 -15 -6 -6 -41 4 -13 11 -23 16 -23 5 0 6 5 3 10
-3 6 -1 10 4 10 6 0 11 -7 11 -15 0 -8 -5 -15 -12 -15 -6 0 -1 -8 10 -19 12
-10 18 -21 15 -25 -4 -4 0 -4 9 -1 9 4 18 -1 23 -12 7 -17 8 -17 15 2 8 19 9
18 9 -4 1 -18 5 -22 21 -18 10 3 21 0 24 -7 3 -7 5 -6 5 3 1 11 4 11 16 1 12
-10 18 -10 30 0 12 10 15 10 15 0 0 -9 4 -9 17 1 9 8 14 9 10 3 -8 -13 24 -15
40 -1 9 6 13 6 13 -3 0 -9 4 -9 17 1 9 8 14 9 10 3 -8 -13 24 -15 40 -1 9 6
13 6 13 -3 0 -9 4 -9 17 1 9 8 14 9 10 3 -8 -13 24 -15 41 -1 8 6 12 6 12 -3
0 -9 4 -9 17 1 9 8 14 9 10 3 -8 -13 24 -15 41 -1 8 6 12 6 12 -3 0 -9 4 -9
17 1 9 8 14 9 10 3 -8 -13 24 -15 40 -1 8 6 13 6 13 0 0 -5 7 -10 15 -10 8 0
12 4 9 9 -3 4 0 8 5 8 6 0 11 -4 11 -10 0 -5 4 -10 9 -10 5 0 7 10 5 23 -4 20
-4 20 4 2 7 -16 19 -20 56 -21 25 0 46 2 47 5 3 24 8 44 14 49 3 4 3 -9 0 -27
-5 -30 -4 -33 10 -21 8 7 15 8 15 4 0 -10 199 -14 201 -5 3 25 8 44 14 49 3 4
3 -9 0 -27 -5 -30 -4 -33 10 -21 8 7 15 8 15 4 0 -10 199 -14 201 -5 3 25 8
44 14 49 3 4 3 -9 0 -27 -5 -30 -4 -33 10 -21 8 7 15 8 15 4 0 -10 199 -14
201 -5 3 25 8 44 14 49 3 4 3 -9 0 -27 -5 -30 -4 -33 10 -21 8 7 15 8 15 4 0
-10 199 -14 201 -5 3 25 8 44 14 49 3 4 3 -9 0 -27 -5 -30 -4 -33 10 -21 8 7
15 8 15 3 0 -11 170 -11 188 0 7 5 12 3 12 -4 0 -8 5 -7 17 2 9 8 14 9 10 3
-8 -13 24 -15 41 -1 8 6 12 6 12 -3 0 -9 4 -9 17 1 9 8 14 9 10 3 -8 -13 24
-15 41 -1 8 6 12 6 12 -3 0 -9 4 -9 17 1 9 8 14 9 10 3 -8 -13 24 -15 41 -1 8
6 12 6 12 -3 0 -9 4 -9 17 1 9 8 14 9 10 3 -8 -13 24 -15 41 -1 8 6 12 6 12
-3 0 -9 4 -9 17 1 9 8 14 9 10 3 -8 -13 24 -15 41 -1 8 6 12 6 12 -3 0 -9 4
-9 17 1 9 8 14 9 10 3 -8 -13 24 -15 41 -1 8 6 12 6 12 -3 0 -9 4 -9 17 1 9 8
14 9 10 3 -8 -13 24 -15 41 -1 7 6 12 6 12 0 0 -5 7 -10 15 -10 8 0 12 4 9 9
-3 4 0 8 5 8 6 0 11 -3 11 -8 0 -12 254 -9 262 3 5 7 8 6 8 -1 0 -11 89 -15
91 -5 3 26 8 44 14 49 3 4 4 -7 1 -23 l-5 -30 62 -1 c34 0 65 5 69 11 5 7 8 7
8 -1 0 -11 89 -15 91 -5 3 26 8 44 14 49 3 4 4 -7 1 -23 l-5 -30 62 -1 c34 0
65 5 69 11 5 7 8 7 8 -1 0 -11 89 -15 91 -5 3 26 8 44 14 49 3 4 4 -7 1 -23
l-5 -30 62 -1 c34 0 65 5 69 11 5 7 8 7 8 -1 0 -11 89 -15 91 -5 3 26 8 44 14
49 3 4 4 -7 1 -23 l-5 -30 62 -1 c34 0 65 5 69 11 5 7 8 6 8 -1 0 -13 58 -13
78 -1 7 5 12 3 12 -4 0 -8 5 -7 17 2 9 8 14 9 10 3 -8 -13 24 -15 41 -1 8 6
12 6 12 -3 0 -9 4 -9 17 1 9 8 14 9 10 3 -8 -13 24 -15 41 -1 8 6 12 6 12 -3
0 -9 4 -9 17 1 9 8 14 9 10 3 -8 -13 24 -15 41 -1 8 6 12 6 12 -3 0 -9 4 -9
17 1 9 8 14 9 10 3 -8 -13 24 -15 41 -1 8 6 12 6 12 -3 0 -9 4 -9 17 1 9 8 14
9 10 3 -8 -13 24 -15 41 -1 8 6 12 6 12 -3 0 -9 4 -9 17 1 9 8 14 9 10 3 -8
-13 24 -15 41 -1 8 6 12 6 12 -3 0 -9 4 -9 17 1 9 8 14 9 10 3 -8 -13 24 -15
41 -1 7 6 12 6 12 0 0 -5 7 -10 15 -10 8 0 12 4 9 9 -3 4 0 8 5 8 6 0 11 -4
11 -10 0 -5 4 -10 9 -10 5 0 7 10 5 23 -4 20 -4 20 4 2 7 -16 19 -20 56 -21
25 0 46 2 47 5 3 24 8 44 14 49 3 4 3 -9 0 -27 -5 -30 -4 -33 10 -21 8 7 15 8
15 3 0 -13 193 -12 202 1 5 7 8 7 8 1 0 -5 12 -11 27 -12 19 -1 22 1 12 8 -11
7 -11 9 3 9 9 0 20 -5 23 -10 4 -6 12 -7 18 -3 7 4 17 8 22 9 25 3 55 17 55
25 0 5 -6 8 -13 6 -6 -1 -12 4 -12 12 0 8 6 15 13 17 7 1 8 0 2 -3 -17 -8 -11
-20 8 -19 10 0 27 10 38 20 19 19 19 20 -4 14 -12 -3 -20 -2 -16 3 3 5 11 9
19 9 21 0 28 18 33 85 3 33 5 870 6 1860 l1 1800 -30 48 c-17 26 -36 47 -42
47 -7 0 -13 4 -13 9 0 29 -144 31 -2482 29 -1311 0 -2395 -3 -2411 -7z m4953
-3801 c0 -5 -2 -10 -4 -10 -3 0 -8 5 -11 10 -3 6 -1 10 4 10 6 0 11 -4 11 -10z
m-5027 -19 c-4 -14 0 -18 19 -17 18 1 23 -4 22 -21 0 -16 5 -23 19 -23 15 0
17 3 8 13 -8 10 -7 14 3 14 8 0 13 -7 11 -16 -1 -10 -12 -16 -26 -16 -19 0
-23 5 -21 22 2 18 -1 21 -17 18 -24 -4 -49 30 -28 38 6 3 13 6 14 6 0 1 -1 -7
-4 -18z m5007 -1 c0 -5 -4 -10 -10 -10 -5 0 -10 5 -10 10 0 6 5 10 10 10 6 0
10 -4 10 -10z m-18 -28 c-7 -2 -10 -9 -6 -15 3 -7 -1 -4 -9 5 -8 10 -18 14
-22 10 -5 -4 -5 -2 -2 5 4 6 17 9 29 5 12 -3 17 -7 10 -10z m29 -5 c-10 -9
-11 -8 -5 6 3 10 9 15 12 12 3 -3 0 -11 -7 -18z m-4897 -12 c3 -9 -3 -19 -17
-25 -19 -10 -20 -9 -6 2 9 7 14 19 12 26 -6 17 4 15 11 -3z m23 -7 c-3 -8 -6
-5 -6 6 -1 11 2 17 5 13 3 -3 4 -12 1 -19z m40 -20 c-25 -20 -37 -22 -37 -8 0
6 3 9 8 8 18 -4 40 15 35 30 -4 15 -3 15 6 2 8 -12 5 -19 -12 -32z m80 0 c-12
-10 -26 -18 -32 -18 -5 0 2 8 16 18 14 9 24 24 22 32 -4 13 -3 13 6 0 8 -11 5
-19 -12 -32z m81 17 c-3 -3 -9 2 -12 12 -6 14 -5 15 5 6 7 -7 10 -15 7 -18z
m36 10 c-4 -8 -8 -15 -10 -15 -2 0 -4 7 -4 15 0 8 4 15 10 15 5 0 7 -7 4 -15z
m56 -19 c-10 -10 -30 1 -29 17 0 9 2 9 6 0 7 -20 23 -15 17 5 -5 14 -4 15 5 2
6 -8 6 -19 1 -24z m68 9 c-3 -3 -9 2 -12 12 -6 14 -5 15 5 6 7 -7 10 -15 7
-18z m36 10 c-4 -8 -8 -15 -10 -15 -2 0 -4 7 -4 15 0 8 4 15 10 15 5 0 7 -7 4
-15z m181 -14 c-3 -6 -10 -9 -14 -7 -4 3 -12 -4 -19 -14 -10 -16 -8 -18 8 -17
11 1 22 7 24 14 3 7 10 13 16 13 17 0 -20 -34 -41 -37 -21 -3 -34 12 -19 22 5
3 10 11 10 16 0 6 -5 7 -12 3 -6 -4 -8 -3 -4 4 3 6 16 9 27 7 16 -3 19 0 14
13 -5 13 -3 14 6 5 6 -6 8 -16 4 -22z m54 6 c22 6 37 -12 20 -23 -8 -5 -9 -3
-4 5 5 9 0 12 -16 9 -15 -2 -24 2 -25 12 0 8 1 10 3 4 2 -7 12 -10 22 -7z m52
5 c-7 -2 -18 1 -23 6 -8 8 -4 9 13 5 13 -4 18 -8 10 -11z m134 -11 c-3 -6 -10
-9 -14 -7 -4 3 -12 -4 -19 -14 -10 -16 -8 -18 8 -17 11 1 22 7 24 14 3 7 10
13 16 13 17 0 -20 -34 -41 -37 -21 -3 -34 12 -19 22 5 3 10 11 10 16 0 6 -5 7
-12 3 -6 -4 -8 -3 -4 4 3 6 16 9 27 7 16 -3 19 0 14 13 -5 13 -3 14 6 5 6 -6
8 -16 4 -22z m54 6 c22 6 37 -12 20 -23 -8 -5 -9 -3 -4 5 5 9 0 12 -16 9 -15
-2 -24 2 -25 12 0 8 1 10 3 4 2 -7 12 -10 22 -7z m52 5 c-7 -2 -18 1 -23 6 -8
8 -4 9 13 5 13 -4 18 -8 10 -11z m134 -11 c-3 -6 -10 -9 -14 -7 -4 3 -12 -4
-19 -14 -10 -16 -8 -18 8 -17 11 1 22 7 24 14 3 7 10 13 16 13 17 0 -20 -34
-41 -37 -21 -3 -34 12 -19 22 5 3 10 11 10 16 0 6 -5 7 -12 3 -6 -4 -8 -3 -4
4 3 6 16 9 27 7 16 -3 19 0 14 13 -5 13 -3 14 6 5 6 -6 8 -16 4 -22z m54 6
c22 6 37 -12 20 -23 -8 -5 -9 -3 -4 5 5 9 0 12 -16 9 -15 -2 -24 2 -25 12 0 8
1 10 3 4 2 -7 12 -10 22 -7z m52 5 c-7 -2 -18 1 -23 6 -8 8 -4 9 13 5 13 -4
18 -8 10 -11z m134 -11 c-3 -6 -10 -9 -14 -7 -4 3 -12 -4 -19 -14 -10 -16 -8
-18 8 -17 11 1 22 7 24 14 3 7 10 13 16 13 17 0 -20 -34 -41 -37 -21 -3 -34
12 -19 22 5 3 10 11 10 16 0 6 -5 7 -12 3 -6 -4 -8 -3 -4 4 3 6 16 9 27 7 16
-3 19 0 14 13 -5 13 -3 14 6 5 6 -6 8 -16 4 -22z m54 6 c22 6 37 -12 20 -23
-8 -5 -9 -3 -4 5 5 9 0 12 -16 9 -15 -2 -24 2 -25 12 0 8 1 10 3 4 2 -7 12
-10 22 -7z m52 5 c-7 -2 -18 1 -23 6 -8 8 -4 9 13 5 13 -4 18 -8 10 -11z m134
-11 c-3 -6 -10 -9 -14 -7 -4 3 -13 -4 -19 -15 -11 -17 -10 -20 5 -17 10 2 26
12 36 23 18 20 18 20 3 -4 -8 -14 -24 -26 -35 -28 -22 -3 -37 12 -21 22 5 3
10 11 10 16 0 6 -5 7 -12 3 -6 -4 -8 -3 -4 4 3 6 16 9 27 7 16 -3 19 0 14 13
-5 13 -3 14 6 5 6 -6 8 -16 4 -22z m177 1 c13 -2 16 2 12 15 -5 15 -4 15 4 3
14 -19 6 -30 -21 -26 -13 2 -23 11 -24 22 -2 14 -1 15 5 4 4 -8 15 -16 24 -18z
m86 3 c-3 -3 -9 2 -12 12 -6 14 -5 15 5 6 7 -7 10 -15 7 -18z m36 10 c-4 -8
-8 -15 -10 -15 -2 0 -4 7 -4 15 0 8 4 15 10 15 5 0 7 -7 4 -15z m56 -19 c-10
-10 -30 1 -29 17 0 9 2 9 6 0 7 -20 23 -15 17 5 -5 14 -4 15 5 2 6 -8 6 -19 1
-24z m68 9 c-3 -3 -9 2 -12 12 -6 14 -5 15 5 6 7 -7 10 -15 7 -18z m36 10 c-4
-8 -8 -15 -10 -15 -2 0 -4 7 -4 15 0 8 4 15 10 15 5 0 7 -7 4 -15z m56 -19
c-10 -10 -30 1 -29 17 0 9 2 9 6 0 7 -20 23 -15 17 5 -5 14 -4 15 5 2 6 -8 6
-19 1 -24z m68 9 c-3 -3 -9 2 -12 12 -6 14 -5 15 5 6 7 -7 10 -15 7 -18z m36
10 c-4 -8 -8 -15 -10 -15 -2 0 -4 7 -4 15 0 8 4 15 10 15 5 0 7 -7 4 -15z m56
-19 c-10 -10 -30 1 -29 17 0 9 2 9 6 0 7 -20 23 -15 17 5 -5 14 -4 15 5 2 6
-8 6 -19 1 -24z m68 9 c-3 -3 -9 2 -12 12 -6 14 -5 15 5 6 7 -7 10 -15 7 -18z
m36 10 c-4 -8 -8 -15 -10 -15 -2 0 -4 7 -4 15 0 8 4 15 10 15 5 0 7 -7 4 -15z
m98 -17 c-7 -7 -12 -8 -12 -2 0 5 -5 2 -10 -6 -7 -11 -10 -11 -10 -2 0 7 -5
10 -12 6 -6 -4 -8 -3 -4 4 3 6 16 9 27 7 16 -3 19 0 14 13 -5 14 -4 15 6 5 10
-10 10 -16 1 -25z m63 7 c29 0 28 -47 -2 -51 -25 -4 -39 11 -22 22 7 4 9 3 5
-4 -4 -6 1 -10 13 -9 12 1 19 8 18 19 -1 12 -8 18 -21 16 -14 -2 -21 3 -23 17
-2 15 -1 16 5 5 4 -8 16 -15 27 -15z m46 7 c-7 -2 -18 1 -23 6 -8 8 -4 9 13 5
13 -4 18 -8 10 -11z m134 -11 c-3 -6 -11 -9 -16 -6 -5 4 -10 -2 -10 -12 -1
-17 -2 -17 -6 0 -2 9 -9 14 -15 11 -6 -4 -8 -2 -4 4 3 6 16 9 27 7 16 -3 19 0
14 13 -5 13 -3 14 6 5 6 -6 8 -16 4 -22z m60 4 c29 0 28 -47 -2 -51 -25 -4
-39 11 -22 22 7 4 9 3 5 -4 -4 -6 1 -10 13 -9 12 1 19 8 18 19 -1 12 -8 18
-21 16 -14 -2 -21 3 -23 17 -2 15 -1 16 5 5 4 -8 16 -15 27 -15z m46 7 c-7 -2
-18 1 -23 6 -8 8 -4 9 13 5 13 -4 18 -8 10 -11z m134 -11 c-3 -6 -11 -9 -16
-6 -5 4 -10 -2 -10 -12 -1 -17 -2 -17 -6 0 -2 9 -9 14 -15 11 -6 -4 -8 -2 -4
4 3 6 16 9 27 7 16 -3 19 0 14 13 -5 13 -3 14 6 5 6 -6 8 -16 4 -22z m50 -1
c5 1 11 -4 13 -12 3 -11 2 -11 -6 0 -5 8 -13 13 -18 12 -5 0 -10 7 -11 17 -3
17 -2 17 5 0 4 -10 12 -18 17 -17z m35 20 c0 -5 -5 -10 -11 -10 -5 0 -7 5 -4
10 3 6 8 10 11 10 2 0 4 -4 4 -10z m75 -19 c-3 -6 -11 -9 -16 -6 -5 4 -9 -1
-9 -9 0 -9 -4 -16 -10 -16 -5 0 -6 7 -3 17 5 12 3 14 -7 8 -8 -5 -11 -4 -6 3
3 6 16 9 27 7 16 -3 19 0 14 13 -5 13 -3 14 6 5 6 -6 8 -16 4 -22z m60 4 c15
0 19 -6 17 -24 -3 -16 0 -21 9 -16 8 5 10 4 5 -4 -11 -17 -28 -2 -23 21 4 15
1 18 -16 16 -15 -2 -22 3 -24 17 -2 15 -1 16 5 5 4 -8 16 -15 27 -15z m46 7
c-7 -2 -18 1 -23 6 -8 8 -4 9 13 5 13 -4 18 -8 10 -11z m134 -11 c-3 -6 -11
-9 -16 -6 -5 4 -9 -1 -9 -9 0 -9 -4 -16 -10 -16 -5 0 -6 7 -3 17 5 12 3 14 -7
8 -8 -5 -11 -4 -6 3 3 6 16 9 27 7 16 -3 19 0 14 13 -5 13 -3 14 6 5 6 -6 8
-16 4 -22z m60 4 c15 0 19 -6 17 -24 -3 -16 0 -21 9 -16 8 5 10 4 5 -4 -11
-17 -28 -2 -23 21 4 15 1 18 -16 16 -15 -2 -22 3 -24 17 -2 15 -1 16 5 5 4 -8
16 -15 27 -15z m46 7 c-7 -2 -18 1 -23 6 -8 8 -4 9 13 5 13 -4 18 -8 10 -11z
m134 -11 c-3 -6 -11 -9 -16 -6 -5 4 -9 -1 -9 -9 0 -9 -4 -16 -10 -16 -5 0 -6
7 -3 17 5 12 3 14 -7 8 -8 -5 -11 -4 -6 3 3 6 16 9 27 7 16 -3 19 0 14 13 -5
13 -3 14 6 5 6 -6 8 -16 4 -22z m119 -3 c-3 -4 -11 -8 -17 -7 -9 0 -9 2 0 5 7
3 9 13 6 22 -4 14 -3 14 5 2 6 -8 8 -18 6 -22z m64 7 c-3 -3 -9 2 -12 12 -6
14 -5 15 5 6 7 -7 10 -15 7 -18z m36 10 c-4 -8 -8 -15 -10 -15 -2 0 -4 7 -4
15 0 8 4 15 10 15 5 0 7 -7 4 -15z m56 -19 c-10 -10 -30 1 -29 17 0 9 2 9 6 0
7 -20 23 -15 17 5 -5 14 -4 15 5 2 6 -8 6 -19 1 -24z m68 9 c-3 -3 -9 2 -12
12 -6 14 -5 15 5 6 7 -7 10 -15 7 -18z m36 10 c-4 -8 -8 -15 -10 -15 -2 0 -4
7 -4 15 0 8 4 15 10 15 5 0 7 -7 4 -15z m56 -19 c-10 -10 -30 1 -29 17 0 9 2
9 6 0 7 -20 23 -15 17 5 -5 14 -4 15 5 2 6 -8 6 -19 1 -24z m68 9 c-3 -3 -9 2
-12 12 -6 14 -5 15 5 6 7 -7 10 -15 7 -18z m36 10 c-4 -8 -8 -15 -10 -15 -2 0
-4 7 -4 15 0 8 4 15 10 15 5 0 7 -7 4 -15z m56 -19 c-10 -10 -30 1 -29 17 0 9
2 9 6 0 7 -20 23 -15 17 5 -5 14 -4 15 5 2 6 -8 6 -19 1 -24z m68 9 c-3 -3 -9
2 -12 12 -6 14 -5 15 5 6 7 -7 10 -15 7 -18z m36 10 c-4 -8 -8 -15 -10 -15 -2
0 -4 7 -4 15 0 8 4 15 10 15 5 0 7 -7 4 -15z m181 -14 c-3 -6 -10 -9 -14 -7
-4 3 -12 -4 -19 -14 -10 -16 -8 -18 8 -17 11 1 22 7 24 14 3 7 10 13 16 13 17
0 -20 -34 -41 -37 -21 -3 -34 12 -19 22 5 3 10 11 10 16 0 6 -5 7 -12 3 -6 -4
-8 -3 -4 4 3 6 16 9 27 7 16 -3 19 0 14 13 -5 13 -3 14 6 5 6 -6 8 -16 4 -22z
m54 6 c22 6 37 -12 20 -23 -8 -5 -9 -3 -4 5 5 9 0 12 -16 9 -15 -2 -24 2 -25
12 0 8 1 10 3 4 2 -7 12 -10 22 -7z m52 5 c-7 -2 -18 1 -23 6 -8 8 -4 9 13 5
13 -4 18 -8 10 -11z m134 -11 c-3 -6 -10 -9 -14 -7 -4 3 -13 -4 -19 -15 -11
-17 -10 -20 5 -17 10 2 26 14 35 28 16 23 17 23 15 3 0 -12 -4 -20 -8 -17 -4
2 -9 -1 -11 -8 -5 -14 -45 -21 -53 -9 -3 5 -1 12 5 16 5 3 10 11 10 16 0 6 -5
7 -12 3 -6 -4 -8 -3 -4 4 3 6 16 9 27 7 16 -3 19 0 14 13 -5 13 -3 14 6 5 6
-6 8 -16 4 -22z m85 19 c0 -5 -5 -10 -11 -10 -5 0 -7 5 -4 10 3 6 8 10 11 10
2 0 4 -4 4 -10z m57 -5 c4 -4 3 -5 -3 -2 -7 4 -15 0 -18 -9 -3 -8 -10 -12 -16
-9 -5 3 -10 2 -10 -4 0 -5 5 -12 10 -14 6 -3 5 -4 -2 -3 -7 2 -13 9 -13 17 0
8 6 13 14 11 8 -2 11 3 8 12 -6 15 17 16 30 1z m-4705 -9 c7 4 8 2 4 -5 -9
-13 -26 -5 -25 12 0 9 2 8 6 -1 2 -6 10 -9 15 -6z m80 0 c7 4 8 2 4 -5 -9 -13
-26 -5 -25 12 0 9 2 8 6 -1 2 -6 10 -9 15 -6z m160 0 c7 4 8 2 4 -5 -9 -13
-26 -5 -25 12 0 9 2 8 6 -1 2 -6 10 -9 15 -6z m118 10 c0 -2 -7 -6 -15 -10 -8
-3 -15 -1 -15 4 0 6 7 10 15 10 8 0 15 -2 15 -4z m67 -2 c-3 -3 -12 -4 -19 -1
-8 3 -5 6 6 6 11 1 17 -2 13 -5z m240 0 c-3 -3 -12 -4 -19 -1 -8 3 -5 6 6 6
11 1 17 -2 13 -5z m240 0 c-3 -3 -12 -4 -19 -1 -8 3 -5 6 6 6 11 1 17 -2 13
-5z m240 0 c-3 -3 -12 -4 -19 -1 -8 3 -5 6 6 6 11 1 17 -2 13 -5z m240 0 c-3
-3 -12 -4 -19 -1 -8 3 -5 6 6 6 11 1 17 -2 13 -5z m295 -8 c7 4 8 2 4 -5 -9
-13 -26 -5 -25 12 0 9 2 8 6 -1 2 -6 10 -9 15 -6z m160 0 c7 4 8 2 4 -5 -9
-13 -26 -5 -25 12 0 9 2 8 6 -1 2 -6 10 -9 15 -6z m160 0 c7 4 8 2 4 -5 -9
-13 -26 -5 -25 12 0 9 2 8 6 -1 2 -6 10 -9 15 -6z m160 0 c7 4 8 2 4 -5 -9
-13 -26 -5 -25 12 0 9 2 8 6 -1 2 -6 10 -9 15 -6z m108 10 c0 -3 -4 -8 -10
-11 -5 -3 -10 -1 -10 4 0 6 5 11 10 11 6 0 10 -2 10 -4z m237 -2 c-3 -3 -12
-4 -19 -1 -8 3 -5 6 6 6 11 1 17 -2 13 -5z m240 0 c-3 -3 -12 -4 -19 -1 -8 3
-5 6 6 6 11 1 17 -2 13 -5z m400 0 c-3 -3 -12 -4 -19 -1 -8 3 -5 6 6 6 11 1
17 -2 13 -5z m240 0 c-3 -3 -12 -4 -19 -1 -8 3 -5 6 6 6 11 1 17 -2 13 -5z
m215 -8 c7 4 8 2 4 -5 -9 -13 -26 -5 -25 12 0 9 2 8 6 -1 2 -6 10 -9 15 -6z
m160 0 c7 4 8 2 4 -5 -9 -13 -26 -5 -25 12 0 9 2 8 6 -1 2 -6 10 -9 15 -6z
m160 0 c7 4 8 2 4 -5 -9 -13 -26 -5 -25 12 0 9 2 8 6 -1 2 -6 10 -9 15 -6z
m160 0 c7 4 8 2 4 -5 -9 -13 -26 -5 -25 12 0 9 2 8 6 -1 2 -6 10 -9 15 -6z
m118 10 c0 -2 -7 -6 -15 -10 -8 -3 -15 -1 -15 4 0 6 7 10 15 10 8 0 15 -2 15
-4z m67 -2 c-3 -3 -12 -4 -19 -1 -8 3 -5 6 6 6 11 1 17 -2 13 -5z m240 0 c-3
-3 -12 -4 -19 -1 -8 3 -5 6 6 6 11 1 17 -2 13 -5z m-4117 -14 c0 -5 -4 -10
-10 -10 -5 0 -10 5 -10 10 0 6 5 10 10 10 6 0 10 -4 10 -10z m240 0 c0 -5 -4
-10 -10 -10 -5 0 -10 5 -10 10 0 6 5 10 10 10 6 0 10 -4 10 -10z m240 0 c0 -5
-4 -10 -10 -10 -5 0 -10 5 -10 10 0 6 5 10 10 10 6 0 10 -4 10 -10z m240 0 c0
-5 -4 -10 -10 -10 -5 0 -10 5 -10 10 0 6 5 10 10 10 6 0 10 -4 10 -10z m240 0
c0 -5 -4 -10 -10 -10 -5 0 -10 5 -10 10 0 6 5 10 10 10 6 0 10 -4 10 -10z
m218 -8 c2 -7 8 -10 12 -7 5 3 14 -5 20 -17 11 -22 10 -22 -4 -4 -9 11 -16 16
-16 10 0 -5 -6 -2 -13 6 -7 8 -20 16 -30 18 -15 3 -16 0 -5 -17 6 -11 16 -17
20 -15 5 3 11 -2 14 -10 3 -9 9 -14 13 -11 4 2 8 -2 8 -10 0 -8 -4 -15 -9 -15
-4 0 -8 5 -8 11 0 5 -4 7 -10 4 -5 -3 -7 0 -4 9 4 11 0 14 -15 11 -11 -2 -24
1 -27 7 -4 7 -2 8 4 4 7 -4 12 -3 12 3 0 5 -5 13 -10 16 -6 4 -8 11 -5 16 8
12 48 5 53 -9z m902 8 c0 -5 -4 -10 -10 -10 -5 0 -10 5 -10 10 0 6 5 10 10 10
6 0 10 -4 10 -10z m240 0 c0 -5 -4 -10 -10 -10 -5 0 -10 5 -10 10 0 6 5 10 10
10 6 0 10 -4 10 -10z m400 0 c0 -5 -4 -10 -10 -10 -5 0 -10 5 -10 10 0 6 5 10
10 10 6 0 10 -4 10 -10z m240 0 c0 -5 -4 -10 -10 -10 -5 0 -10 5 -10 10 0 6 5
10 10 10 6 0 10 -4 10 -10z m172 -19 c-2 -14 0 -21 6 -17 16 10 24 -12 12 -31
-9 -16 -10 -15 -5 5 5 16 3 22 -7 20 -8 -2 -13 6 -12 19 0 15 -5 21 -18 20
-10 -1 -18 -6 -18 -11 0 -5 -3 -7 -6 -3 -11 11 5 24 28 23 18 -1 22 -6 20 -25z
m708 19 c0 -5 -4 -10 -10 -10 -5 0 -10 5 -10 10 0 6 5 10 10 10 6 0 10 -4 10
-10z m240 0 c0 -5 -4 -10 -10 -10 -5 0 -10 5 -10 10 0 6 5 10 10 10 6 0 10 -4
10 -10z m-1578 -27 c-11 -19 -48 -28 -57 -13 -3 5 0 12 6 16 7 4 9 3 5 -4 -4
-7 1 -10 14 -9 11 1 23 10 26 20 3 10 8 16 11 14 2 -3 0 -14 -5 -24z m1750 -7
c6 4 8 2 5 -4 -4 -5 -15 -9 -25 -8 -9 2 -20 -4 -24 -13 -6 -12 -7 -12 -5 4 2
11 9 19 15 18 7 -2 13 7 13 20 l2 22 4 -23 c3 -13 9 -19 15 -16z m-4837 6 c-3
-3 -11 0 -18 7 -9 10 -8 11 6 5 10 -3 15 -9 12 -12z m90 8 c-3 -5 -12 -10 -18
-10 -7 0 -6 4 3 10 19 12 23 12 15 0z m80 0 c-3 -5 -12 -10 -18 -10 -7 0 -6 4
3 10 19 12 23 12 15 0z m80 0 c-3 -5 -12 -10 -18 -10 -7 0 -6 4 3 10 19 12 23
12 15 0z m40 0 c-3 -5 -12 -10 -18 -10 -7 0 -6 4 3 10 19 12 23 12 15 0z m35
0 c0 -5 -4 -10 -10 -10 -5 0 -10 5 -10 10 0 6 5 10 10 10 6 0 10 -4 10 -10z
m40 0 c0 -5 -4 -10 -10 -10 -5 0 -10 5 -10 10 0 6 5 10 10 10 6 0 10 -4 10
-10z m45 0 c-3 -5 -12 -10 -18 -10 -7 0 -6 4 3 10 19 12 23 12 15 0z m40 0
c-3 -5 -12 -10 -18 -10 -7 0 -6 4 3 10 19 12 23 12 15 0z m35 0 c0 -5 -4 -10
-10 -10 -5 0 -10 5 -10 10 0 6 5 10 10 10 6 0 10 -4 10 -10z m40 0 c0 -5 -4
-10 -10 -10 -5 0 -10 5 -10 10 0 6 5 10 10 10 6 0 10 -4 10 -10z m90 -1 c0 -5
-5 -7 -12 -3 -8 5 -9 1 -4 -12 5 -14 4 -16 -5 -7 -6 6 -8 16 -5 22 9 14 26 14
26 0z m173 4 c-7 -2 -13 -9 -13 -14 0 -6 5 -7 10 -4 6 3 13 -1 16 -9 3 -9 9
-14 13 -11 4 2 8 -2 8 -10 0 -8 -4 -15 -9 -15 -4 0 -8 5 -8 11 0 5 -4 7 -10 4
-5 -3 -7 0 -4 9 4 11 0 14 -15 11 -11 -2 -24 1 -27 7 -4 6 -3 8 3 5 6 -4 13 0
17 8 3 8 11 15 18 14 10 0 10 -2 1 -6z m67 -4 c0 -5 -5 -7 -12 -3 -8 5 -9 1
-4 -12 5 -14 4 -16 -5 -7 -6 6 -8 16 -5 22 9 14 26 14 26 0z m173 4 c-7 -2
-13 -9 -13 -14 0 -6 5 -7 10 -4 6 3 13 -1 16 -9 3 -9 9 -14 13 -11 4 2 8 -2 8
-10 0 -8 -4 -15 -9 -15 -4 0 -8 5 -8 11 0 5 -4 7 -10 4 -5 -3 -7 0 -4 9 4 11
0 14 -15 11 -11 -2 -24 1 -27 7 -4 6 -3 8 3 5 6 -4 13 0 17 8 3 8 11 15 18 14
10 0 10 -2 1 -6z m67 -4 c0 -5 -5 -7 -12 -3 -8 5 -9 1 -4 -12 5 -14 4 -16 -5
-7 -6 6 -8 16 -5 22 9 14 26 14 26 0z m173 4 c-7 -2 -13 -9 -13 -14 0 -6 5 -7
10 -4 6 3 13 -1 16 -9 3 -9 9 -14 13 -11 4 2 8 -2 8 -10 0 -8 -4 -15 -9 -15
-4 0 -8 5 -8 11 0 5 -4 7 -10 4 -5 -3 -7 0 -4 9 4 11 0 14 -15 11 -11 -2 -24
1 -27 7 -4 6 -3 8 3 5 6 -4 13 0 17 8 3 8 11 15 18 14 10 0 10 -2 1 -6z m67
-4 c0 -5 -5 -7 -12 -3 -8 5 -9 1 -4 -12 5 -14 4 -16 -5 -7 -6 6 -8 16 -5 22 9
14 26 14 26 0z m173 4 c-7 -2 -13 -9 -13 -14 0 -6 5 -7 10 -4 6 3 13 -1 16 -9
3 -9 9 -14 13 -11 4 2 8 -2 8 -10 0 -8 -4 -15 -9 -15 -4 0 -8 5 -8 11 0 5 -4
7 -10 4 -5 -3 -7 0 -4 9 4 11 0 14 -15 11 -11 -2 -24 1 -27 7 -4 6 -3 8 3 5 6
-4 13 0 17 8 3 8 11 15 18 14 10 0 10 -2 1 -6z m67 -4 c0 -5 -5 -7 -12 -3 -8
5 -9 1 -4 -12 5 -14 4 -16 -5 -7 -6 6 -8 16 -5 22 9 14 26 14 26 0z m120 1 c0
-5 -4 -10 -10 -10 -5 0 -10 5 -10 10 0 6 5 10 10 10 6 0 10 -4 10 -10z m155 0
c-3 -5 -12 -10 -18 -10 -7 0 -6 4 3 10 19 12 23 12 15 0z m40 0 c-3 -5 -12
-10 -18 -10 -7 0 -6 4 3 10 19 12 23 12 15 0z m35 0 c0 -5 -4 -10 -10 -10 -5
0 -10 5 -10 10 0 6 5 10 10 10 6 0 10 -4 10 -10z m40 0 c0 -5 -4 -10 -10 -10
-5 0 -10 5 -10 10 0 6 5 10 10 10 6 0 10 -4 10 -10z m85 0 c-3 -5 -12 -10 -18
-10 -7 0 -6 4 3 10 19 12 23 12 15 0z m39 2 c3 -5 -1 -9 -9 -9 -8 0 -15 4 -15
9 0 4 4 8 9 8 6 0 12 -4 15 -8z m36 -2 c0 -5 -4 -10 -10 -10 -5 0 -10 5 -10
10 0 6 5 10 10 10 6 0 10 -4 10 -10z m85 0 c-3 -5 -12 -10 -18 -10 -7 0 -6 4
3 10 19 12 23 12 15 0z m39 2 c3 -5 -1 -9 -9 -9 -8 0 -15 4 -15 9 0 4 4 8 9 8
6 0 12 -4 15 -8z m36 -2 c0 -5 -4 -10 -10 -10 -5 0 -10 5 -10 10 0 6 5 10 10
10 6 0 10 -4 10 -10z m85 0 c-3 -5 -12 -10 -18 -10 -7 0 -6 4 3 10 19 12 23
12 15 0z m39 2 c3 -5 -1 -9 -9 -9 -8 0 -15 4 -15 9 0 4 4 8 9 8 6 0 12 -4 15
-8z m36 -2 c0 -5 -4 -10 -10 -10 -5 0 -10 5 -10 10 0 6 5 10 10 10 6 0 10 -4
10 -10z m88 -4 c-10 -7 -14 -17 -10 -21 4 -5 1 -5 -6 -1 -10 6 -10 11 -1 22 6
8 17 14 23 14 6 0 3 -7 -6 -14z m112 4 c8 -5 11 -10 5 -10 -5 0 -17 5 -25 10
-8 5 -10 10 -5 10 6 0 17 -5 25 -10z m50 0 c0 -5 -2 -10 -4 -10 -3 0 -8 5 -11
10 -3 6 -1 10 4 10 6 0 11 -4 11 -10z m190 0 c8 -5 11 -10 5 -10 -5 0 -17 5
-25 10 -8 5 -10 10 -5 10 6 0 17 -5 25 -10z m50 0 c0 -5 -2 -10 -4 -10 -3 0
-8 5 -11 10 -3 6 -1 10 4 10 6 0 11 -4 11 -10z m250 6 c0 -3 -4 -8 -10 -11 -5
-3 -10 -1 -10 4 0 6 5 11 10 11 6 0 10 -2 10 -4z m93 -14 c-2 -6 6 -10 17 -9
11 1 20 7 20 14 0 7 5 13 10 13 7 0 7 -6 1 -19 -10 -18 -52 -24 -50 -7 0 5 -5
13 -13 18 -10 8 -10 9 2 5 8 -2 14 -9 13 -15z m147 14 c0 -3 -4 -8 -10 -11 -5
-3 -10 -1 -10 4 0 6 5 11 10 11 6 0 10 -2 10 -4z m93 -14 c-2 -6 6 -10 17 -9
11 1 20 7 20 14 0 7 5 13 10 13 7 0 7 -6 1 -19 -10 -18 -52 -24 -50 -7 0 5 -5
13 -13 18 -10 8 -10 9 2 5 8 -2 14 -9 13 -15z m292 8 c-3 -5 -12 -10 -18 -10
-7 0 -6 4 3 10 19 12 23 12 15 0z m39 2 c3 -5 -1 -9 -9 -9 -8 0 -15 4 -15 9 0
4 4 8 9 8 6 0 12 -4 15 -8z m36 -2 c0 -5 -4 -10 -10 -10 -5 0 -10 5 -10 10 0
6 5 10 10 10 6 0 10 -4 10 -10z m85 0 c-3 -5 -12 -10 -18 -10 -7 0 -6 4 3 10
19 12 23 12 15 0z m39 2 c3 -5 -1 -9 -9 -9 -8 0 -15 4 -15 9 0 4 4 8 9 8 6 0
12 -4 15 -8z m36 -2 c0 -5 -4 -10 -10 -10 -5 0 -10 5 -10 10 0 6 5 10 10 10 6
0 10 -4 10 -10z m85 0 c-3 -5 -12 -10 -18 -10 -7 0 -6 4 3 10 19 12 23 12 15
0z m39 2 c3 -5 -1 -9 -9 -9 -8 0 -15 4 -15 9 0 4 4 8 9 8 6 0 12 -4 15 -8z
m36 -2 c0 -5 -4 -10 -10 -10 -5 0 -10 5 -10 10 0 6 5 10 10 10 6 0 10 -4 10
-10z m85 0 c-3 -5 -12 -10 -18 -10 -7 0 -6 4 3 10 19 12 23 12 15 0z m35 0 c0
-5 -4 -10 -10 -10 -5 0 -10 5 -10 10 0 6 5 10 10 10 6 0 10 -4 10 -10z m40 0
c0 -5 -4 -10 -10 -10 -5 0 -10 5 -10 10 0 6 5 10 10 10 6 0 10 -4 10 -10z m90
-1 c0 -5 -5 -7 -12 -3 -8 5 -9 1 -4 -12 5 -14 4 -16 -5 -7 -6 6 -8 16 -5 22 9
14 26 14 26 0z m173 4 c-7 -2 -13 -9 -13 -14 0 -6 5 -7 10 -4 6 3 13 -1 16 -9
3 -9 9 -14 13 -11 4 2 8 -2 8 -10 0 -8 -4 -15 -9 -15 -4 0 -8 5 -8 11 0 5 -4
7 -10 4 -5 -3 -7 0 -4 9 4 11 0 14 -15 11 -11 -2 -24 1 -27 7 -4 6 -3 8 3 5 6
-4 13 0 17 8 3 8 11 15 18 14 10 0 10 -2 1 -6z m67 -4 c0 -5 -5 -7 -12 -3 -8
5 -9 1 -4 -12 5 -14 4 -16 -5 -7 -6 6 -8 16 -5 22 9 14 26 14 26 0z m-1928
-13 c7 4 8 2 4 -5 -9 -13 -26 -5 -25 12 0 9 2 8 6 -1 2 -6 10 -9 15 -6z m240
0 c7 4 8 2 4 -5 -9 -13 -26 -5 -25 12 0 9 2 8 6 -1 2 -6 10 -9 15 -6z m-2946
-14 c1 -7 0 -8 -3 -2 -2 5 -9 10 -14 10 -6 0 -8 -4 -4 -9 3 -5 1 -12 -4 -15
-8 -5 -8 5 -2 32 2 9 25 -6 27 -16z m503 -5 c0 -8 -2 -8 -6 1 -4 10 -8 10 -19
1 -9 -7 -14 -8 -14 -1 0 12 21 22 33 15 4 -2 7 -10 6 -16z m1941 -2 c14 -19
14 -19 -2 -6 -10 7 -18 18 -18 24 0 6 1 8 3 6 1 -2 9 -13 17 -24z m117 6 c0
-11 -5 -18 -9 -15 -4 3 -5 11 -1 19 7 21 12 19 10 -4z m101 1 c2 -7 8 -10 13
-7 5 4 6 -2 2 -11 -4 -11 -8 -13 -11 -6 -2 7 -8 10 -13 7 -5 -4 -6 1 -3 9 4
11 0 13 -14 9 -11 -2 -22 -1 -25 4 -3 5 6 8 21 7 14 0 28 -6 30 -12z m240 0
c2 -7 8 -10 13 -7 5 4 6 -2 2 -11 -4 -11 -8 -13 -11 -6 -2 7 -8 10 -13 7 -5
-4 -6 1 -3 9 4 11 0 13 -14 9 -11 -2 -22 -1 -25 4 -3 5 6 8 21 7 14 0 28 -6
30 -12z m240 0 c2 -7 8 -10 13 -7 5 4 6 -2 2 -11 -4 -11 -8 -13 -11 -6 -2 7
-8 10 -13 7 -5 -4 -6 1 -3 9 4 11 0 13 -14 9 -11 -2 -22 -1 -25 4 -3 5 6 8 21
7 14 0 28 -6 30 -12z m240 0 c2 -7 8 -10 13 -7 5 4 6 -2 2 -11 -4 -11 -8 -13
-11 -6 -2 7 -8 10 -13 7 -5 -4 -6 1 -3 9 4 11 0 13 -14 9 -11 -2 -22 -1 -25 4
-3 5 6 8 21 7 14 0 28 -6 30 -12z m240 0 c2 -7 8 -10 13 -7 5 4 6 -2 2 -11 -4
-11 -8 -13 -11 -6 -2 7 -8 10 -13 7 -5 -4 -6 1 -3 9 4 11 0 13 -14 9 -11 -2
-22 -1 -25 4 -3 5 6 8 21 7 14 0 28 -6 30 -12z m721 -5 c0 -8 -2 -8 -6 1 -4
10 -8 10 -19 1 -9 -7 -14 -8 -14 -1 0 12 21 22 33 15 4 -2 7 -10 6 -16z m495
7 c3 -8 2 -12 -4 -9 -6 3 -10 10 -10 16 0 14 7 11 14 -7z m-4794 -9 c0 -8 -4
-15 -10 -15 -5 0 -7 7 -4 15 4 8 8 15 10 15 2 0 4 -7 4 -15z m40 5 c0 -5 -4
-10 -10 -10 -5 0 -10 5 -10 10 0 6 5 10 10 10 6 0 10 -4 10 -10z m40 -5 c0 -8
-4 -15 -10 -15 -5 0 -7 7 -4 15 4 8 8 15 10 15 2 0 4 -7 4 -15z m40 5 c0 -5
-4 -10 -10 -10 -5 0 -10 5 -10 10 0 6 5 10 10 10 6 0 10 -4 10 -10z m40 -5 c0
-8 -4 -15 -10 -15 -5 0 -7 7 -4 15 4 8 8 15 10 15 2 0 4 -7 4 -15z m40 5 c0
-5 -4 -10 -10 -10 -5 0 -10 5 -10 10 0 6 5 10 10 10 6 0 10 -4 10 -10z m40 -5
c0 -8 -4 -15 -10 -15 -5 0 -7 7 -4 15 4 8 8 15 10 15 2 0 4 -7 4 -15z m40 5
c0 -5 -4 -10 -10 -10 -5 0 -10 5 -10 10 0 6 5 10 10 10 6 0 10 -4 10 -10z m40
-5 c0 -8 -4 -15 -10 -15 -5 0 -7 7 -4 15 4 8 8 15 10 15 2 0 4 -7 4 -15z m40
5 c0 -5 -4 -10 -10 -10 -5 0 -10 5 -10 10 0 6 5 10 10 10 6 0 10 -4 10 -10z
m40 -5 c0 -8 -4 -15 -10 -15 -5 0 -7 7 -4 15 4 8 8 15 10 15 2 0 4 -7 4 -15z
m1311 -12 c-12 -20 -14 -14 -5 12 4 9 9 14 11 11 3 -2 0 -13 -6 -23z m49 12
c0 -8 -4 -15 -10 -15 -5 0 -7 7 -4 15 4 8 8 15 10 15 2 0 4 -7 4 -15z m40 5
c0 -5 -4 -10 -10 -10 -5 0 -10 5 -10 10 0 6 5 10 10 10 6 0 10 -4 10 -10z m40
-5 c0 -8 -4 -15 -10 -15 -5 0 -7 7 -4 15 4 8 8 15 10 15 2 0 4 -7 4 -15z m40
5 c0 -5 -4 -10 -10 -10 -5 0 -10 5 -10 10 0 6 5 10 10 10 6 0 10 -4 10 -10z
m40 -5 c0 -8 -4 -15 -10 -15 -5 0 -7 7 -4 15 4 8 8 15 10 15 2 0 4 -7 4 -15z
m40 5 c0 -5 -4 -10 -10 -10 -5 0 -10 5 -10 10 0 6 5 10 10 10 6 0 10 -4 10
-10z m40 -5 c0 -8 -4 -15 -10 -15 -5 0 -7 7 -4 15 4 8 8 15 10 15 2 0 4 -7 4
-15z m40 5 c0 -5 -4 -10 -10 -10 -5 0 -10 5 -10 10 0 6 5 10 10 10 6 0 10 -4
10 -10z m40 -5 c0 -8 -4 -15 -10 -15 -5 0 -7 7 -4 15 4 8 8 15 10 15 2 0 4 -7
4 -15z m40 5 c0 -5 -4 -10 -10 -10 -5 0 -10 5 -10 10 0 6 5 10 10 10 6 0 10
-4 10 -10z m40 -5 c0 -8 -4 -15 -10 -15 -5 0 -7 7 -4 15 4 8 8 15 10 15 2 0 4
-7 4 -15z m40 5 c0 -5 -4 -10 -10 -10 -5 0 -10 5 -10 10 0 6 5 10 10 10 6 0
10 -4 10 -10z m40 -5 c0 -8 -4 -15 -10 -15 -5 0 -7 7 -4 15 4 8 8 15 10 15 2
0 4 -7 4 -15z m40 5 c0 -5 -4 -10 -10 -10 -5 0 -10 5 -10 10 0 6 5 10 10 10 6
0 10 -4 10 -10z m40 -5 c0 -8 -4 -15 -10 -15 -5 0 -7 7 -4 15 4 8 8 15 10 15
2 0 4 -7 4 -15z m50 -1 c0 -2 -7 -4 -15 -4 -8 0 -15 4 -15 10 0 5 7 7 15 4 8
-4 15 -8 15 -10z m1310 1 c0 -8 -4 -15 -10 -15 -5 0 -7 7 -4 15 4 8 8 15 10
15 2 0 4 -7 4 -15z m40 5 c0 -5 -4 -10 -10 -10 -5 0 -10 5 -10 10 0 6 5 10 10
10 6 0 10 -4 10 -10z m40 -5 c0 -8 -4 -15 -10 -15 -5 0 -7 7 -4 15 4 8 8 15
10 15 2 0 4 -7 4 -15z m40 5 c0 -5 -4 -10 -10 -10 -5 0 -10 5 -10 10 0 6 5 10
10 10 6 0 10 -4 10 -10z m40 -5 c0 -8 -4 -15 -10 -15 -5 0 -7 7 -4 15 4 8 8
15 10 15 2 0 4 -7 4 -15z m40 5 c0 -5 -4 -10 -10 -10 -5 0 -10 5 -10 10 0 6 5
10 10 10 6 0 10 -4 10 -10z m40 -5 c0 -8 -4 -15 -10 -15 -5 0 -7 7 -4 15 4 8
8 15 10 15 2 0 4 -7 4 -15z m40 5 c0 -5 -4 -10 -10 -10 -5 0 -10 5 -10 10 0 6
5 10 10 10 6 0 10 -4 10 -10z m40 -5 c0 -8 -4 -15 -10 -15 -5 0 -7 7 -4 15 4
8 8 15 10 15 2 0 4 -7 4 -15z m40 5 c0 -5 -4 -10 -10 -10 -5 0 -10 5 -10 10 0
6 5 10 10 10 6 0 10 -4 10 -10z m40 -5 c0 -8 -4 -15 -10 -15 -5 0 -7 7 -4 15
4 8 8 15 10 15 2 0 4 -7 4 -15z m40 5 c0 -5 -4 -10 -10 -10 -5 0 -10 5 -10 10
0 6 5 10 10 10 6 0 10 -4 10 -10z m40 -5 c0 -8 -4 -15 -10 -15 -5 0 -7 7 -4
15 4 8 8 15 10 15 2 0 4 -7 4 -15z m40 5 c0 -5 -4 -10 -10 -10 -5 0 -10 5 -10
10 0 6 5 10 10 10 6 0 10 -4 10 -10z m40 -5 c0 -8 -4 -15 -10 -15 -5 0 -7 7
-4 15 4 8 8 15 10 15 2 0 4 -7 4 -15z m-3700 -12 c0 -3 -7 -3 -15 1 -8 3 -15
0 -15 -6 0 -6 -3 -9 -6 -5 -11 10 6 26 21 20 8 -3 15 -7 15 -10z m110 7 c18
-12 2 -12 -25 0 -13 6 -15 9 -5 9 8 0 22 -4 30 -9z m130 -7 c0 -3 -7 -3 -15 1
-8 3 -15 0 -15 -6 0 -6 -3 -9 -6 -5 -11 10 6 26 21 20 8 -3 15 -7 15 -10z
m110 7 c18 -12 2 -12 -25 0 -13 6 -15 9 -5 9 8 0 22 -4 30 -9z m130 -7 c0 -3
-7 -3 -15 1 -8 3 -15 0 -15 -6 0 -6 -3 -9 -6 -5 -11 10 6 26 21 20 8 -3 15 -7
15 -10z m110 7 c18 -12 2 -12 -25 0 -13 6 -15 9 -5 9 8 0 22 -4 30 -9z m130
-7 c0 -3 -7 -3 -15 1 -8 3 -15 0 -15 -6 0 -6 -3 -9 -6 -5 -11 10 6 26 21 20 8
-3 15 -7 15 -10z m110 7 c18 -12 2 -12 -25 0 -13 6 -15 9 -5 9 8 0 22 -4 30
-9z m130 -7 c0 -3 -7 -3 -15 1 -8 3 -15 0 -15 -6 0 -6 -3 -9 -6 -5 -11 10 6
26 21 20 8 -3 15 -7 15 -10z m110 7 c18 -12 2 -12 -25 0 -13 6 -15 9 -5 9 8 0
22 -4 30 -9z m850 -7 c0 -3 -7 -3 -15 1 -8 3 -15 0 -15 -6 0 -6 -3 -9 -6 -5
-11 10 6 26 21 20 8 -3 15 -7 15 -10z m110 7 c18 -12 2 -12 -25 0 -13 6 -15 9
-5 9 8 0 22 -4 30 -9z m130 -7 c0 -3 -7 -3 -15 1 -8 3 -15 0 -15 -6 0 -6 -3
-9 -6 -5 -11 10 6 26 21 20 8 -3 15 -7 15 -10z m110 7 c18 -12 2 -12 -25 0
-13 6 -15 9 -5 9 8 0 22 -4 30 -9z m130 -7 c0 -3 -7 -3 -15 1 -8 3 -15 0 -15
-6 0 -6 -3 -9 -6 -5 -11 10 6 26 21 20 8 -3 15 -7 15 -10z m110 7 c18 -12 2
-12 -25 0 -13 6 -15 9 -5 9 8 0 22 -4 30 -9z m130 -7 c0 -3 -7 -3 -15 1 -8 3
-15 0 -15 -6 0 -6 -3 -9 -6 -5 -11 10 6 26 21 20 8 -3 15 -7 15 -10z m110 7
c18 -12 2 -12 -25 0 -13 6 -15 9 -5 9 8 0 22 -4 30 -9z m130 -7 c0 -3 -7 -3
-15 1 -8 3 -15 0 -15 -6 0 -6 -3 -9 -6 -5 -11 10 6 26 21 20 8 -3 15 -7 15
-10z m110 7 c18 -12 2 -12 -25 0 -13 6 -15 9 -5 9 8 0 22 -4 30 -9z m850 -7
c0 -3 -7 -3 -15 1 -8 3 -15 0 -15 -6 0 -6 -3 -9 -6 -5 -11 10 6 26 21 20 8 -3
15 -7 15 -10z m110 7 c18 -12 2 -12 -25 0 -13 6 -15 9 -5 9 8 0 22 -4 30 -9z
m130 -7 c0 -3 -7 -3 -15 1 -8 3 -15 0 -15 -6 0 -6 -3 -9 -6 -5 -11 10 6 26 21
20 8 -3 15 -7 15 -10z m154 9 c2 -4 -4 -8 -15 -8 -10 0 -19 4 -19 8 0 4 6 8
14 8 8 0 17 -4 20 -8z m-2279 -12 c3 -6 -1 -7 -9 -4 -18 7 -21 14 -7 14 6 0
13 -4 16 -10z"/>
</g>
</svg>
